<?xml version="1.0" standalone="no"?>
<!DOCTYPE svg PUBLIC "-//W3C//DTD SVG 20010904//EN"
 "http://www.w3.org/TR/2001/REC-SVG-20010904/DTD/svg10.dtd">
<svg version="1.0" xmlns="http://www.w3.org/2000/svg"
 width="379.000000pt" height="188.000000pt" viewBox="0 0 379.000000 188.000000"
 preserveAspectRatio="xMidYMid meet">

<g transform="translate(0.000000,188.000000) scale(0.100000,-0.100000)"
fill="#000000" stroke="none">
<path d="M0 940 l0 -940 1895 0 1895 0 0 940 0 940 -1895 0 -1895 0 0 -940z
m1210 736 c102 -14 496 -69 875 -121 380 -53 724 -100 765 -105 155 -20 736
-101 758 -106 l22 -4 0 -363 0 -363 -82 -12 c-46 -6 -198 -27 -338 -46 -889
-124 -2217 -306 -2227 -306 -10 0 -13 153 -13 731 l0 731 28 -6 c15 -3 110
-17 212 -30z m-250 -701 c0 -399 -2 -725 -5 -725 -12 0 -848 211 -856 216 -8
4 -14 1023 -6 1024 1 1 186 48 412 105 226 57 420 104 433 104 l22 1 0 -725z"/>
<path d="M1030 955 l0 -525 75 0 75 0 0 209 0 209 168 4 c147 3 173 7 218 27
107 47 158 135 158 271 0 65 -5 96 -20 131 -30 66 -77 113 -136 140 -48 21
-70 24 -220 27 -137 3 -168 6 -168 18 0 11 -17 14 -75 14 l-75 0 0 -525z m495
386 c70 -32 105 -93 105 -184 0 -98 -37 -167 -104 -198 -34 -15 -66 -19 -193
-19 l-153 0 0 210 0 210 153 0 c126 0 159 -4 192 -19z"/>
<path d="M2014 1331 c-56 -14 -118 -55 -145 -96 -45 -66 -51 -104 -47 -316 3
-176 5 -198 25 -234 51 -95 125 -137 242 -137 124 0 193 39 241 135 l30 60 0
191 c0 105 -5 208 -10 228 -16 55 -69 119 -123 146 -51 27 -156 38 -213 23z
m149 -95 c43 -18 84 -67 98 -118 6 -25 9 -105 7 -202 -3 -141 -6 -165 -24
-196 -32 -56 -77 -80 -146 -80 -78 0 -121 19 -155 71 -27 41 -28 46 -31 204
-4 176 4 227 43 273 49 58 137 78 208 48z"/>
<path d="M2567 1244 c-4 -4 -7 -137 -7 -296 l0 -288 35 0 35 0 0 220 c0 121 3
220 8 220 4 0 70 -98 147 -218 139 -214 141 -217 178 -220 l37 -3 -2 293 -3
293 -32 3 -33 3 0 -225 c0 -124 -3 -226 -7 -226 -5 0 -72 100 -150 223 -126
198 -144 222 -170 225 -16 2 -32 0 -36 -4z"/>
<path d="M3290 1209 c-33 -13 -68 -47 -87 -84 -21 -39 -29 -222 -14 -296 14
-68 55 -112 121 -130 91 -24 178 10 216 84 9 16 19 65 21 109 l6 78 -92 0 -91
0 0 -30 c0 -30 1 -30 55 -30 l55 0 0 -45 c0 -35 -6 -52 -29 -77 -27 -30 -35
-33 -86 -33 -51 0 -59 3 -86 33 -29 32 -29 32 -29 167 0 133 0 135 28 165 52
59 154 48 184 -20 11 -25 19 -30 47 -30 31 0 33 2 26 27 -23 93 -149 150 -245
112z"/>
</g>
</svg>
