<?xml version="1.0" standalone="no"?>
<!DOCTYPE svg PUBLIC "-//W3C//DTD SVG 20010904//EN"
 "http://www.w3.org/TR/2001/REC-SVG-20010904/DTD/svg10.dtd">
<svg version="1.0" xmlns="http://www.w3.org/2000/svg"
 width="554.000000pt" height="421.000000pt" viewBox="0 0 554.000000 421.000000"
 preserveAspectRatio="xMidYMid meet">

<g transform="translate(0.000000,421.000000) scale(0.100000,-0.100000)"
fill="#000000" stroke="none">
<path d="M633 3257 l-603 -152 0 -716 0 -717 607 -151 608 -152 1830 253 1830
253 3 512 2 512 -32 6 c-18 3 -832 116 -1808 250 -976 134 -1788 246 -1805
249 -18 2 -266 -55 -632 -147z m594 -1863 c-1 -1 -267 63 -590 144 l-587 147
2 704 3 705 585 146 585 146 3 -995 c1 -547 1 -995 -1 -997z m1857 1741 c978
-135 1784 -245 1792 -245 12 0 14 -79 14 -499 l0 -499 -37 -6 c-48 -8 -3590
-496 -3597 -496 -3 0 -6 450 -6 1000 l0 1000 28 -5 c15 -3 827 -116 1806 -250z"/>
<path d="M1375 3029 c-3 -8 -4 -329 -3 -714 l3 -700 115 0 115 0 3 271 2 272
208 4 c181 4 215 8 273 27 117 40 206 125 250 238 33 86 33 243 0 334 -46 127
-130 208 -261 251 -59 19 -93 21 -382 26 -262 3 -319 2 -323 -9z m627 -229
c45 -13 103 -75 117 -127 23 -82 8 -163 -42 -220 -51 -58 -74 -63 -282 -63
l-185 0 0 210 0 210 178 0 c97 0 193 -5 214 -10z"/>
<path d="M2765 2926 c-136 -43 -218 -122 -267 -257 -22 -61 -23 -78 -23 -329
0 -287 5 -318 62 -417 93 -161 318 -232 520 -162 106 36 186 115 235 230 22
52 23 64 23 349 l0 295 -36 75 c-55 114 -138 186 -251 216 -65 17 -209 17
-263 0z m206 -187 c56 -19 100 -59 125 -113 23 -49 24 -60 24 -281 0 -132 -5
-246 -11 -268 -14 -52 -71 -112 -125 -133 -91 -35 -207 -5 -262 67 -43 56 -47
84 -47 324 0 196 3 237 18 276 42 108 166 165 278 128z"/>
<path d="M3420 2355 l0 -445 70 0 70 0 2 321 3 321 180 -318 181 -319 82 -3
82 -3 0 446 0 445 -70 0 -70 0 0 -327 c0 -194 -4 -323 -9 -317 -5 5 -89 152
-186 327 l-177 317 -79 0 -79 0 0 -445z"/>
<path d="M4398 2757 c-84 -24 -152 -91 -182 -180 -21 -64 -23 -371 -2 -440 31
-104 127 -176 246 -185 99 -7 167 16 229 78 65 65 83 119 85 258 l1 107 -137
3 -138 3 0 -66 0 -65 70 0 70 0 0 -30 c0 -142 -172 -210 -267 -106 l-33 36 0
176 c0 144 3 182 17 211 23 49 66 73 130 73 44 0 58 -5 87 -31 19 -16 38 -39
41 -50 6 -17 16 -19 81 -19 l74 0 -19 50 c-27 71 -74 125 -134 154 -64 32
-154 41 -219 23z"/>
</g>
</svg>
